<?xml version="1.0" encoding="utf-8"?>
<!-- Generator: Adobe Illustrator 18.0.0, SVG Export Plug-In . SVG Version: 6.00 Build 0)  -->
<!DOCTYPE svg PUBLIC "-//W3C//DTD SVG 1.1//EN" "http://www.w3.org/Graphics/SVG/1.1/DTD/svg11.dtd">
<svg version="1.1" id="Слой_1" xmlns="http://www.w3.org/2000/svg" xmlns:xlink="http://www.w3.org/1999/xlink" x="0px" y="0px"
	 viewBox="0 0 256 256" enable-background="new 0 0 256 256" xml:space="preserve">
<rect fill="#E2152B" width="256" height="256"/>
<rect x="3" y="3" fill="#FFFFFF" width="250" height="250"/>
<g>
	<path fill="#E2152B" d="M128,30c15.9,0,24.6,4.2,24.6,6.4c0,2.2-8.7,6.4-24.6,6.4s-24.6-4.2-24.6-6.4C103.4,34.2,112.1,30,128,30z"
		/>
	<path fill="#E2152B" d="M103.4,45v-2.6c5.4,3.1,15.1,4.8,24.6,4.8s19.2-1.6,24.6-4.8V45c0,2.2-8.7,6.4-24.6,6.4
		S103.4,47.2,103.4,45z"/>
	<path fill="#E2152B" d="M104.8,79.6l-1.3,5.7c-0.3,1.2,0.5,2.3,1.7,2.6c0.2,0,0.3,0,0.5,0.1c1,0,2-0.7,2.2-1.7l2.1-9l5.2-22.5
		c4.3,0.7,8.6,1,12.9,1c4.3,0,8.6-0.3,12.9-1l5.2,22.5l2.1,9c0.2,1,1.1,1.7,2.2,1.7c0.2,0,0.3,0,0.5,0c1.2-0.3,2-1.4,1.7-2.6
		l-1.3-5.7c10.1,2.4,14.8,5.8,14.8,8.3c0,4.5-14.5,10.7-38,10.7s-38-6.2-38-10.7C90,85.4,94.6,81.9,104.8,79.6z"/>
	<path fill="#E2152B" d="M90,98.6v-3.7c7.5,5.2,23.1,8,38,8s30.6-2.8,38-8v3.7c0,3.8-10.6,8.9-28.4,10.3h0c-3,0.2-6.2,0.4-9.7,0.4
		s-6.6-0.1-9.7-0.4h0C100.5,107.5,90,102.4,90,98.6z"/>
	<path fill="#E2152B" d="M128,113.6c2.1,0,4.3-0.1,6.4-0.2l-2.3,5.7l0,0.1l-4,9.9l-4-9.9l0-0.1l-2.3-5.7
		C123.7,113.5,125.9,113.6,128,113.6z"/>
	<path fill="#E2152B" d="M86.5,122.1h33.9l5.5,13.6c0.3,0.8,1.2,1.4,2.1,1.4s1.8-0.5,2.1-1.4l5.5-13.6h33.9l18.3,19.3H68.2
		L86.5,122.1z"/>
	<path fill="#E2152B" d="M190.7,147.9c0,1.2-1,2.1-2.2,2.1H67.6c-1.2,0-2.2-1-2.2-2.1v-2.1h125.3V147.9z"/>
</g>
<text transform="matrix(1 0 0 1 30.7374 210.8452)" fill="#E2152B" font-family="'PTSans-Bold'" font-size="44.5243" letter-spacing="1">Pinblocks</text>
</svg>
